<?xml version="1.0" encoding="utf-8"?>
<!-- Generator: Adobe Illustrator 26.1.0, SVG Export Plug-In . SVG Version: 6.00 Build 0)  -->
<svg version="1.1" id="Layer_1" xmlns="http://www.w3.org/2000/svg" xmlns:xlink="http://www.w3.org/1999/xlink" x="0px" y="0px"
	 viewBox="0 0 1200 1200" style="enable-background:new 0 0 1200 1200;" xml:space="preserve">
<style type="text/css">
	.st0{fill:#FFFFFF;}
	.st1{fill:#1A1A1A;}
	.st2{fill:#FED631;}
	.st3{fill:#FFFFFF;stroke:#1A1A1A;stroke-width:17;stroke-miterlimit:10;}
	.st4{fill:#FED631;stroke:#1A1A1A;stroke-width:12;stroke-miterlimit:10;}
	.st5{fill:#FED631;stroke:#1A1A1A;stroke-width:4;stroke-miterlimit:10;}
	.st6{fill:#1A1A1A;stroke:#1A1A1A;stroke-width:2;stroke-miterlimit:10;}
	.st7{fill:#FED631;stroke:#212121;stroke-width:12;stroke-miterlimit:10;}
	.st8{fill:#1A1A1A;stroke:#1A1A1A;stroke-miterlimit:10;}
</style>
<g>
	<g>
		<path class="st1" d="M136.6,767c72.7,1.2,147.4-1.2,220.1,0c1,12-1,27.7,0,39.7c160.7-0.3,323.5,0.3,484.1,0
			c0.3-12.4-0.3-27.3,0-39.7c74.2-0.9,148.4,0.9,222.6,0c-22.9,25-45.3,50-68.2,75c22.5,25.7,45.6,54.6,68.2,80.3
			c-58.3,2.3-119.4-2.3-177.7,0c-1.4,10.5,1.4,25.6,0,36.1c-189.5,0.6-382.9-0.6-572.4,0c-1.2-12,1.2-24.1,0-36.1
			c-58.5-0.8-118.2,0.8-176.7,0c23.4-26.3,46.3-54,69.7-80.3C183.2,817.4,159.6,791.6,136.6,767z"/>
		<path class="st0" d="M330.5,943.2c0-39.8,0-79.9,0-119.6c179.4,0,359-0.1,538.5-0.1c0.1,40-0.1,79.7,0,119.7
			C689.4,942.9,510,943.4,330.5,943.2z"/>
		<path class="st0" d="M1032.2,780.5c-18.9,20.4-37.8,40.5-56.7,61c19.2,22,38.3,44.2,57.5,66.2c-48.3,0.1-98.5-0.1-146.8,0
			c-1.2-33.5,1.2-67.2,0-100.7c-9.8-0.6-21.5,0.6-31.3,0c-0.3-7.8-0.7-18.6-1-26.5C913.3,780,972.8,781.1,1032.2,780.5z"/>
		<path class="st0" d="M168.1,780.5c57.6-0.1,115.3,0.1,172.9,0c-0.3,8.6-0.7,17.8-1,26.5c-7.9,1.3-21.3-1.3-29.2,0
			c-1.8,32.9,1.8,67.8,0,100.7c-47.7-0.4-95.4,0.4-143.1,0c19-21.9,37.9-44.1,56.9-66C205.7,821.1,186.9,801,168.1,780.5z"/>
		<polygon class="st2" points="598.5,622 393.1,730 432.3,501.3 266.2,339.4 495.8,306 598.5,98 701.2,306 930.8,339.4 764.6,501.3 
			803.8,730 		"/>
		<path class="st1" d="M598.5,98L701.2,306l229.6,33.4L764.6,501.3L803.8,730L598.5,622L393.1,730l39.2-228.7L266.2,339.4L495.8,306
			L598.5,98 M598.5,60.2l-15,30.4l-98.8,200.2l-220.9,32.1l-33.5,4.9l24.3,23.7l159.8,155.8l-37.7,220l-5.7,33.4l30-15.8
			l197.6-103.9l197.6,103.9l30,15.8l-5.7-33.4l-37.7-220l159.8-155.8l24.3-23.7l-33.5-4.9l-220.9-32.1L613.5,90.6L598.5,60.2
			L598.5,60.2z"/>
	</g>
</g>
<path class="st1" d="M835.3,1147H364.7c-10.1,0-18.3-8.2-18.3-18.3l0,0c0-10.1,8.2-18.3,18.3-18.3h470.7c10.1,0,18.3,8.2,18.3,18.3
	l0,0C853.6,1138.8,845.4,1147,835.3,1147z"/>
<path class="st1" d="M835.3,1147H364.7c-10.1,0-18.3-8.2-18.3-18.3l0,0c0-10.1,8.2-18.3,18.3-18.3h470.7c10.1,0,18.3,8.2,18.3,18.3
	l0,0C853.6,1138.8,845.4,1147,835.3,1147z"/>
</svg>
