<?xml version="1.0" encoding="utf-8"?>
<!-- Generator: Adobe Illustrator 26.1.0, SVG Export Plug-In . SVG Version: 6.00 Build 0)  -->
<svg version="1.1" id="Layer_1" xmlns="http://www.w3.org/2000/svg" xmlns:xlink="http://www.w3.org/1999/xlink" x="0px" y="0px"
	 viewBox="0 0 1200 1200" style="enable-background:new 0 0 1200 1200;" xml:space="preserve">
<style type="text/css">
	.st0{fill:#FFFFFF;}
	.st1{fill:#1A1A1A;}
	.st2{fill:#FED631;}
	.st3{fill:#FFFFFF;stroke:#1A1A1A;stroke-width:17;stroke-miterlimit:10;}
	.st4{fill:#FED631;stroke:#1A1A1A;stroke-width:12;stroke-miterlimit:10;}
	.st5{fill:#FED631;stroke:#1A1A1A;stroke-width:4;stroke-miterlimit:10;}
	.st6{fill:#1A1A1A;stroke:#1A1A1A;stroke-width:2;stroke-miterlimit:10;}
	.st7{fill:#FED631;stroke:#212121;stroke-width:12;stroke-miterlimit:10;}
	.st8{fill:#1A1A1A;stroke:#1A1A1A;stroke-miterlimit:10;}
</style>
<g>
	<g>
		<g>
			<path class="st1" d="M911.2,551.9c-2.4,4.1-4.8,8.3-7.2,12.4c0,2.6-0.1,5.1-0.2,7.7c-1.8-1.3-3.8-2.7-6-4.4
				c-6.2-4.7-13.9-10.7-22.2-18.1c-21.5-19.3-53.7-47.4-71-91.1c-12.6-31.8-16.7-67.2-12-106.2c3.4-28.1,9.6-55.8,15-83.6
				c17.8-90.9-21.1-148.6-112-166.6C545.8,72.4,430,130.9,342.7,247.5C233.2,394,234.2,551.1,319.9,707.8
				c84.9,155.2,239.4,217,407.7,168.3c26.8-7.8,52.5-19.5,78.7-29.5c0.2-0.1,0.4-0.1,0.6-0.2c2.7,0.3,5.3,0.6,8,0.9
				c-2.9,5.8-5.9,11.7-8.8,17.5c-2.1,1.1-4.4,2.4-7,3.8c-39.3,20.9-134.3,63.2-249.2,40.6c-18.2-3.6-70.6-15.2-126.8-52.3
				c-65.9-43.5-114-107.6-148.5-186.6C187.4,470.9,252.4,249,434,129.3C532,64.6,638.1,49.8,748.2,95.6
				c67,27.8,95.2,80.3,85.9,152.2c-4.5,34.6-13.3,68.6-17.8,103.2c-3.8,29.6-4.4,66.3,13.5,106.5c15,33.7,38.6,57.4,48.8,67.4
				c9.4,9.2,18.4,16.6,25.9,22.2C906.9,548.9,909.1,550.4,911.2,551.9z"/>
			<path class="st1" d="M1009.8,631.6c2.2,7.9,10.5,35.6-20.5,85.6c-36.3,58.5-87.4,101-146.8,134.4c-1.7,0-3.4,0-5,0
				c33.6-95.1,67.1-190.3,100.7-285.4C946.3,569,997.2,586.8,1009.8,631.6z"/>
			<path class="st1" d="M1029.5,227.6c-11-1.6-24.2,7.3-27.4,22.2c-32.5,99.1-65,198.2-97.5,297.3c-2.3,6.8-4.5,13.7-6.7,20.5
				c-30.5,93.1-61.1,186.1-91.6,279.1c-2.4,7.3-4.8,14.6-7.2,22c-4.6,14-9.2,28.1-13.8,42.1c-6.6,2.4-20.1,8.3-30.1,22.2
				c-10,13.8-11.1,28-11.8,39.8c-1.8,30.3,8.8,54.9,16.5,68.9c13.4-5.1,31.5-14.3,48-31.1c7.2-7.4,14.9-15.2,19.5-27.4
				c9.8-25.7-1.4-50.7-5.2-58.5c8.6-25.3,17.3-50.6,25.9-75.9c3.1-9.2,6.2-18.3,9.3-27.5c20.2-59.4,40.5-118.7,60.7-178.1
				c8.4-24.9,16.9-49.8,25.4-74.7c34.6-101.6,69.2-203.2,103.8-304.7C1053.3,246.1,1042.3,229.5,1029.5,227.6z M800.4,1004.2
				c-10.5,10.6-24.2,18.1-36.4,26.9c-4-15.7-9.5-31.2-11.4-46c-3.1-25.2,7.5-44.4,26.2-59.5c17.9-14.5,31.3-10.8,40,11
				C829.5,963.8,818.7,985.7,800.4,1004.2z"/>
			<path class="st2" d="M822.7,891.7c-4.7,4.6-9.4,9.3-14,13.9c-1.6-5.7-3.3-11.4-4.9-17.1c69.5-213.7,139.1-427.5,208.6-641.2
				c3.9-7.4,12.9-10.3,19.8-6.9c6.2,3.1,9.5,10.6,7.4,17.7C967.2,469.4,894.9,680.6,822.7,891.7z"/>
			<path class="st0" d="M937,588.8c29,9.6,39.6,24.4,43.9,32.3c30,55.5-52.4,143.3-60.1,151.4c-24.5,25.6-49.5,41.1-65.4,49.6
				C882.6,744.3,909.8,666.6,937,588.8z"/>
			<path class="st0" d="M752.6,985.2c-3.2-25.3,7.5-44.4,26.2-59.5c17.9-14.5,31.3-10.8,40,11c10.7,27.1-0.1,49-18.4,67.5
				c-10.5,10.6-24.2,18.1-36.4,27C760,1015.5,754.5,1000,752.6,985.2z"/>
			<path class="st1" d="M677.2,149c-41.1-20.4-83.6-20.7-124.8-0.5c-14.1,6.9-21.1,18.4-20.7,29.8c0.4,12.8,12,21.6,18.8,26.7
				c22.2,16.7,47.7,16.5,64.9,16.3c16.1-0.1,41.1-0.6,63.4-16.9c7.2-5.2,16.1-12.2,17.6-22.9C698.1,169.2,691.6,156.1,677.2,149z
				 M659.5,187.3c-21.5,10.4-44.1,10.6-45.4,10.7c-4.5,0-25.1-0.1-44.4-10.1c-4.7-2.4-9.2-5.5-9.6-9.6c-0.3-3.2,4.6-8.8,8.4-10.3
				c30.5-12.3,61.4-13.6,91.6,0.6c6.2,2.8,9,6.4,8.8,9.9C668.9,182.3,663.7,185.2,659.5,187.3z"/>
			<path class="st0" d="M875.6,549.5c-21.5-19.3-53.7-47.4-71-91.1c-12.6-31.8-16.7-67.2-12-106.2c3.4-28.1,9.6-55.8,15-83.6
				c17.8-90.9-21.1-148.6-112-166.6C545.8,72.4,430,130.9,342.7,247.5C233.2,394,234.2,551.1,319.9,707.8
				c84.9,155.2,239.4,217,407.7,168.3c26.8-7.8,52.5-19.5,78.7-29.5c30.5-93.1,61-186.1,91.6-279.1
				C891.6,562.9,883.9,556.8,875.6,549.5z M696.3,181.4c-1.5,10.7-10.4,17.7-17.6,22.9c-22.3,16.3-47.3,16.8-63.4,16.9
				c-17.2,0.1-42.7,0.4-64.9-16.3c-6.7-5.1-18.3-13.9-18.8-26.7c-0.4-11.4,6.6-23,20.7-29.8c41.2-20.1,83.7-19.9,124.8,0.5
				C691.6,156.1,698.1,169.2,696.3,181.4z"/>
		</g>
		<circle class="st7" cx="440.6" cy="294.6" r="51.2"/>
		<circle class="st7" cx="388.4" cy="447.6" r="51.2"/>
		<circle class="st7" cx="425.6" cy="603" r="51.2"/>
		<circle class="st7" cx="542.2" cy="731.8" r="51.2"/>
		<circle class="st7" cx="704.9" cy="776.1" r="51.2"/>
	</g>
</g>
<path class="st1" d="M835.3,1147H364.7c-10.1,0-18.3-8.2-18.3-18.3l0,0c0-10.1,8.2-18.3,18.3-18.3h470.7c10.1,0,18.3,8.2,18.3,18.3
	l0,0C853.6,1138.8,845.4,1147,835.3,1147z"/>
<path class="st1" d="M835.3,1147H364.7c-10.1,0-18.3-8.2-18.3-18.3l0,0c0-10.1,8.2-18.3,18.3-18.3h470.7c10.1,0,18.3,8.2,18.3,18.3
	l0,0C853.6,1138.8,845.4,1147,835.3,1147z"/>
</svg>
