<?xml version="1.0" encoding="utf-8"?>
<!-- Generator: Adobe Illustrator 26.1.0, SVG Export Plug-In . SVG Version: 6.00 Build 0)  -->
<svg version="1.1" id="Layer_1" xmlns="http://www.w3.org/2000/svg" xmlns:xlink="http://www.w3.org/1999/xlink" x="0px" y="0px"
	 viewBox="0 0 1200 1200" style="enable-background:new 0 0 1200 1200;" xml:space="preserve">
<style type="text/css">
	.st0{fill:#FFFFFF;}
	.st1{fill:#1A1A1A;}
	.st2{fill:#FED631;}
	.st3{fill:#FFFFFF;stroke:#1A1A1A;stroke-width:17;stroke-miterlimit:10;}
	.st4{fill:#FED631;stroke:#1A1A1A;stroke-width:12;stroke-miterlimit:10;}
	.st5{fill:#FED631;stroke:#1A1A1A;stroke-width:17;stroke-miterlimit:10;}
	.st6{fill:#1A1A1A;stroke:#1A1A1A;stroke-width:2;stroke-miterlimit:10;}
	.st7{fill:#FED631;stroke:#212121;stroke-width:12;stroke-miterlimit:10;}
	.st8{fill:#1A1A1A;stroke:#1A1A1A;stroke-miterlimit:10;}
</style>
<g>
	<g>
		<g>
			<path class="st1" d="M250,947.6c12.4-23.5,24.8-47.1,37.3-70.6c-13.4,1.5-51.1,3.9-87.9-19.1c-62.1-38.9-64.2-114.5-64.2-120.5
				c-0.3-149.3-0.5-298.7-0.8-448c-0.5-9-3.1-68.5,43.8-115.2c46.6-46.5,105.7-44,114.7-43.5c203,0,406.1,0,609.1,0
				c11.8-0.7,65.3-2.6,110.8,36.5c59.7,51.3,53.3,128.2,52.5,135.5c-0.2,137-0.3,273.9-0.5,410.9c0.6,13,1.2,59.6-31.9,103.3
				c-36.8,48.7-89,58.8-100.6,60.7c12.4,23.3,24.8,46.7,37.2,70C729.5,947.6,491.8,947.6,250,947.6z M600.2,842.8
				c103.4,0,206.7,0.3,310.1-0.1c75.6-0.3,124-48.7,124.2-124.4c0.4-144.1,0.4-288.2,0-432.3c-0.2-78.1-46.9-124.9-125.6-125.1
				c-205.8-0.4-411.6-0.4-617.4,0c-79.8,0.2-126,47.6-126.1,127.8c-0.2,141.4-0.2,282.7,0,424.1c0.1,82.5,47.5,129.7,130.1,129.9
				C397.1,843,498.6,842.8,600.2,842.8z"/>
			<path class="st0" d="M600.2,842.8c-101.5,0-203.1,0.2-304.6,0c-82.7-0.2-130-47.4-130.1-129.9c-0.2-141.4-0.2-282.7,0-424.1
				c0.1-80.2,46.3-127.6,126.1-127.8c205.8-0.5,411.6-0.4,617.4,0c78.7,0.2,125.5,46.9,125.6,125.1c0.3,144.1,0.4,288.2,0,432.3
				c-0.2,75.8-48.6,124.1-124.2,124.4C806.9,843.1,703.6,842.8,600.2,842.8z M455,501.6c0,51.6-0.7,103.3,0.2,154.9
				c0.8,45.9,41.8,71.3,81.4,49.1c91.6-51.4,182.7-103.8,273-157.4c39.8-23.6,38.8-71.6-1.1-95C719.5,400.9,630,349.4,540.1,298.7
				c-44.8-25.3-84.5-1.1-85,50.8C454.6,400.2,455,450.9,455,501.6z"/>
			<path class="st0" d="M290.1,928.5c8-16.7,16-33.3,24-50c198.1,1,396.1,1.9,594.2,2.9c7.3,15.7,14.6,31.4,21.9,47.1
				C716.6,928.5,503.5,928.5,290.1,928.5z"/>
			<path class="st1" d="M455,501.6c0-50.7-0.4-101.4,0.1-152.2c0.5-51.9,40.2-76.1,85-50.8c89.9,50.8,179.4,102.2,268.5,154.4
				c39.9,23.4,40.9,71.4,1.1,95c-90.3,53.6-181.4,106.1-273,157.4c-39.7,22.2-80.6-3.1-81.4-49.1C454.3,604.9,455,553.3,455,501.6z
				 M476.6,500c0,49.8-0.4,99.7,0.1,149.5c0.4,37.2,23,51,55.7,32.6c87.5-49.3,174.5-99.3,261.2-150c31-18.1,29.8-44.4-1.6-62.6
				c-86.1-50-172.2-99.9-258.5-149.5c-33.7-19.4-56.4-6.1-56.8,33.2C476.2,402.1,476.6,451.1,476.6,500z"/>
			<path class="st2" d="M476.6,500c0-48.9-0.3-97.9,0.1-146.8c0.4-39.3,23.1-52.6,56.8-33.2c86.3,49.6,172.5,99.5,258.5,149.5
				c31.3,18.2,32.5,44.4,1.6,62.6c-86.6,50.7-173.7,100.7-261.2,150c-32.6,18.4-55.2,4.6-55.7-32.6
				C476.1,599.7,476.6,549.8,476.6,500z"/>
		</g>
		<path class="st5" d="M346.7,658.2H241.4c-4.2,0-7.6-3.4-7.6-7.6V364.1c0-4.2,3.4-7.6,7.6-7.6h105.3c4.2,0,7.6,3.4,7.6,7.6v286.6
			C354.2,654.9,350.9,658.2,346.7,658.2z"/>
		<circle class="st5" cx="292.7" cy="278" r="47"/>
	</g>
</g>
<path class="st1" d="M835.3,1147H364.7c-10.1,0-18.3-8.2-18.3-18.3l0,0c0-10.1,8.2-18.3,18.3-18.3h470.7c10.1,0,18.3,8.2,18.3,18.3
	l0,0C853.6,1138.8,845.4,1147,835.3,1147z"/>
</svg>
