<?xml version="1.0" encoding="utf-8"?>
<!-- Generator: Adobe Illustrator 26.1.0, SVG Export Plug-In . SVG Version: 6.00 Build 0)  -->
<svg version="1.1" id="Layer_1" xmlns="http://www.w3.org/2000/svg" xmlns:xlink="http://www.w3.org/1999/xlink" x="0px" y="0px"
	 viewBox="0 0 1200 1200" style="enable-background:new 0 0 1200 1200;" xml:space="preserve">
<style type="text/css">
	.st0{fill:#FFFFFF;}
	.st1{fill:#1A1A1A;}
	.st2{fill:#FED631;}
	.st3{fill:#FFFFFF;stroke:#1A1A1A;stroke-width:17;stroke-miterlimit:10;}
	.st4{fill:#FED631;stroke:#1A1A1A;stroke-width:12;stroke-miterlimit:10;}
	.st5{fill:#FED631;stroke:#1A1A1A;stroke-width:4;stroke-miterlimit:10;}
	.st6{fill:#1A1A1A;stroke:#1A1A1A;stroke-width:2;stroke-miterlimit:10;}
	.st7{fill:#FED631;stroke:#212121;stroke-width:12;stroke-miterlimit:10;}
	.st8{fill:#1A1A1A;stroke:#1A1A1A;stroke-miterlimit:10;}
</style>
<g>
	<g>
		<g>
			<path class="st1" d="M979.9,832.1c10.7-18,29.5-55.2,31.9-105.8c2.3-48.3-11.6-84-15.4-93.1c-31.5-76.7-101-109.6-119.7-117.8
				c-4.6-21.3-35.1-153.1-164.8-228.5c-118.7-69-236.1-41.8-264.3-34.4c-30.6,8.1-164.1,47.8-226.7,185
				C151.4,590,230,731.5,238,745.4c-23.1,56.2-46.1,112.3-69.2,168.5c56.7-22.2,113.5-44.5,170.2-66.8
				c24.2,16.6,61.9,38.1,111.9,50.9c73.8,18.9,136.1,9,168.9,1.4c21.7,14,65.9,38.3,126.8,43.4c79.8,6.6,139.5-23.8,161.8-36.6
				c40.9,13.8,81.8,27.6,122.7,41.4C1014.2,909.1,997.1,870.6,979.9,832.1z M832.8,683c-53.6,140.2-187.2,182.8-206.2,188.5
				C475.2,917,353.6,830.9,340,820.9c-42.7,16.6-85.3,33.2-128,49.7c17.1-43.5,34.3-87.1,51.5-130.6
				c-9.1-15.4-76.9-134.8-24.9-272.7C296.3,314.6,449.4,276.2,463.5,273c131.9-30.7,281.1,26.2,350.7,147.7
				C884,542.8,838.2,668.7,832.8,683z"/>
			<path class="st0" d="M832.8,683c-53.6,140.2-187.2,182.8-206.2,188.5C475.2,917,353.6,830.9,340,820.9
				c-42.7,16.6-85.3,33.2-128,49.7c17.1-43.5,34.3-87.1,51.5-130.6c-9.1-15.4-76.9-134.8-24.9-272.7
				C296.3,314.6,449.4,276.2,463.5,273c131.9-30.7,281.1,26.2,350.7,147.7C884,542.8,838.2,668.7,832.8,683z"/>
			<path class="st1" d="M514.9,158.5c0.8,8.6-4.5,15-8.9,15.3c-4.6,0.3-11-5.9-10.6-15.3c-1.7-33.9-3.3-67.8-5-101.7
				c-0.9-7.8,5.3-14,11.3-13.6c5.1,0.3,10.1,5.4,10.1,12C512.9,89.6,513.9,124.1,514.9,158.5z"/>
			<path class="st1" d="M709.8,130c4.7,2.5,6.6,9.6,2.7,14.9c-14.6,28.3-29.2,56.7-43.9,85c-3.2,3.7-8.6,4.5-12.6,1.9
				c-4.2-2.7-5.6-8.3-3.2-12.8c14.3-27.7,28.7-55.3,43-83C698.1,129.9,705.1,127.5,709.8,130z"/>
			<path class="st1" d="M308.3,156.2c16.7,22.4,33.4,44.9,50.2,67.3c4.6,4.7,4.2,12.1,0,15.9c-4.5,4-12.5,3.2-16.4-2.7
				c-16.6-22.4-33.1-44.7-49.7-67.1c-5-5.7-3.5-14,1.4-17C298,150,304.5,151.2,308.3,156.2z"/>
			<path class="st2" d="M993.3,913.6c-30.4-10.2-60.9-20.5-91.3-30.7c-18.6,12.8-56.6,35-109.4,40.7
				c-72.6,7.8-127.4-20.5-146.5-31.6c28.6-10.4,115.9-46.4,177.2-141.1c58.8-90.7,58.5-180.6,57-211.6c15.6,7.5,68.8,35.5,95.6,98.3
				c40.3,94.6-15.9,182.1-20.6,189.2C968,855.7,980.6,884.6,993.3,913.6z"/>
			<path class="st4" d="M574.3,374.4c13.2,17,8.1,40,6.9,44.9c-12.7,74.2-25.4,148.5-38.1,222.7c-1.2,6-6.4,10.3-12.5,10.5
				c-6.1,0.1-11.6-4.1-13-10.1c-12.8-74-25.6-148.1-38.5-222.1c-1-5.3-4.4-27.3,9-44.1C508.1,350.9,555.2,349.7,574.3,374.4z"/>
		</g>
		
			<ellipse transform="matrix(0.9239 -0.3827 0.3827 0.9239 -241.5967 258.0762)" class="st4" cx="527.9" cy="736.3" rx="47" ry="47"/>
	</g>
</g>
<path class="st1" d="M835.3,1147H364.7c-10.1,0-18.3-8.2-18.3-18.3l0,0c0-10.1,8.2-18.3,18.3-18.3h470.7c10.1,0,18.3,8.2,18.3,18.3
	l0,0C853.6,1138.8,845.4,1147,835.3,1147z"/>
</svg>
