<?xml version="1.0" encoding="utf-8"?>
<!-- Generator: Adobe Illustrator 26.1.0, SVG Export Plug-In . SVG Version: 6.00 Build 0)  -->
<svg version="1.1" id="Layer_1" xmlns="http://www.w3.org/2000/svg" xmlns:xlink="http://www.w3.org/1999/xlink" x="0px" y="0px"
	 viewBox="0 0 1200 1200" style="enable-background:new 0 0 1200 1200;" xml:space="preserve">
<style type="text/css">
	.st0{fill:#FFFFFF;}
	.st1{fill:#1A1A1A;}
	.st2{fill:#FED631;}
	.st3{fill:#FFFFFF;stroke:#1A1A1A;stroke-width:17;stroke-miterlimit:10;}
	.st4{fill:#FED631;stroke:#1A1A1A;stroke-width:12;stroke-miterlimit:10;}
	.st5{fill:#FED631;stroke:#1A1A1A;stroke-width:4;stroke-miterlimit:10;}
	.st6{fill:#1A1A1A;stroke:#1A1A1A;stroke-width:2;stroke-miterlimit:10;}
	.st7{fill:#FED631;stroke:#212121;stroke-width:12;stroke-miterlimit:10;}
	.st8{fill:#1A1A1A;stroke:#1A1A1A;stroke-miterlimit:10;}
</style>
<g>
	<path class="st1" d="M835.3,1147H364.7c-10.1,0-18.3-8.2-18.3-18.3l0,0c0-10.1,8.2-18.3,18.3-18.3h470.7c10.1,0,18.3,8.2,18.3,18.3
		l0,0C853.6,1138.8,845.4,1147,835.3,1147z"/>
	<g>
		<g>
			<path class="st6" d="M739.9,1008.1c-3-33-6.1-66-9.1-99c2.5-13.7,5.1-27.4,7.6-41.1c-7.5,1.8-15.1,3.5-22.6,5.3
				c-100.1,23.4-199.6,44.9-298.4,64.7c-43.9,8.8-64.1,0.2-82.6-9c-42-20.9-60.2-64.1-67.4-85.5C227.5,661.2,187.7,479,148,296.9
				c-2-7.1-15-55.6,15.3-102c29.4-45.1,76.9-53.5,84.4-54.7c126.2-27.3,252.3-54.7,378.5-82c7-2.1,55.2-16,102.3,13.6
				c47.5,29.9,55.7,80,56.8,87.2c25,111.4,49.9,222.8,74.9,334.1c13.6-41.8,27.2-83.8,41-125.8C927,288.8,953,210.7,979,133.2
				c7.7-18.7,27.3-29.2,45.7-25.4c20.8,4.3,35.4,26,31,48.7c-52.5,169.6-104.9,339.2-157.4,508.8c1.7,9.1,3.7,22.1,5,37.9
				c2.6,32.6,3.9,48.9-1.7,67.7c-11.1,37.2-39.3,58.3-46.8,63.6c-6.4,4.5-12.2,7.6-16.3,9.6c-9.7,28-19.4,56-29.2,83.9
				C786.1,954.7,763,981.4,739.9,1008.1z M394.4,923.6c2.8-0.4,10-0.8,17-2.4c106.5-23.1,213-46,319.2-70.3
				c8.2-1.9,17.6-12.9,20.5-21.7c31.2-94.3,61.4-188.9,91.2-283.6c3.2-10.1,3.9-22.2,1.7-32.5c-25-117.5-50.5-234.8-76.3-352.1
				C753.3,95.2,701,60.5,635.2,74.4c-127.8,27-255.6,54.5-383.1,82.8c-70,15.6-101.7,68.5-85.7,139.1c5.7,25,11.3,50,16.8,75
				c34.2,157.3,67.7,314.7,102.8,471.8C296.8,891.6,341.2,924.1,394.4,923.6z"/>
			<path class="st0" d="M394.4,923.6c-53.2,0.5-97.6-32-108.5-80.5C250.9,686,217.3,528.6,183.1,371.3c-5.4-25-11.1-50-16.8-75
				c-16-70.6,15.7-123.5,85.7-139.1c127.5-28.4,255.3-55.9,383.1-82.8c65.8-13.9,118.1,20.7,132.6,86.5
				c25.8,117.3,51.4,234.7,76.3,352.1c2.2,10.3,1.5,22.5-1.7,32.5c-29.7,94.7-60,189.3-91.2,283.6c-2.9,8.8-12.3,19.8-20.5,21.7
				c-106.2,24.3-212.8,47.2-319.2,70.3C404.4,922.8,397.2,923.2,394.4,923.6z M739.5,610.9C742,513.1,664.3,432,566,429.6
				c-99.4-2.4-179.7,74.7-182.3,175c-2.5,96.8,76.5,178.3,174.8,180.5C656,787.3,737,709.3,739.5,610.9z"/>
			<path class="st2" d="M780.8,933.9c-4.5-2.1-7.3-7.2-6.5-12.6c80.1-251.6,160.2-503.2,240.3-754.8c1.7-8.4,10.3-12.9,16.9-10.5
				c6,2.2,9.7,9.8,7.1,17C957.7,424.9,876.9,676.8,796,928.6C792.9,934.2,786.1,936.4,780.8,933.9z"/>
			<path class="st2" d="M747.6,921c-4.4-2.1-7.2-8.3-5.2-14.6C822.6,655.8,902.8,405.1,983,154.5c1.6-7,8.9-11,15.2-8.8
				c6.2,2.1,9.6,9.4,6.9,15.9c-80.5,250.1-161,500.2-241.4,750.3C761.5,920,753.1,923.5,747.6,921z"/>
			<path class="st0" d="M853.2,810.2c9.2-35.7,18.5-71.5,29.3-113.3c15.5,47.5,4,85.7-29.5,113.1L853.2,810.2z"/>
			<path class="st2" d="M746.5,984.2c-2.2-17.2-4.3-34.4-6.5-51.6c14.3,4.6,28.6,9.2,42.9,13.9C770.8,959.1,758.6,971.6,746.5,984.2
				z"/>
			<path class="st0" d="M992.2,131.7c5.4-12.6,19.4-19.2,32.4-15.4c13.2,3.9,21.5,17.4,18.9,31.1c-8.9-2.3-18.1-4.9-27.6-7.8
				C1007.7,137,999.8,134.4,992.2,131.7z"/>
			<path class="st1" d="M739.5,610.9C737,709.3,656,787.3,558.6,785.1c-98.3-2.2-177.3-83.8-174.8-180.5
				c2.6-100.3,82.9-177.4,182.3-175C664.3,432,742,513.1,739.5,610.9z M401.3,605.5c4.1,84.8,61.4,158.1,159.2,159.4
				c95.4,1.3,159.1-71.6,160.2-152.4c1.3-97.4-68.3-160.9-156.9-163.1C473.1,447.2,407,516.6,401.3,605.5z"/>
			<path class="st2" d="M401.3,605.5C402,542.1,441.2,491,486.7,467c5.7-3,35.6-18.6,77.2-17.5c88.6,2.1,158.2,65.6,156.9,163.1
				c-1.1,80.8-64.8,153.7-160.2,152.4c-13-0.2-52.9-1-91.6-28.1C429.6,709.2,400.7,660.9,401.3,605.5z M646,667.4
				c-0.9-12.8,3.7-30-20-24.4c-34.2,8-68.4,16.2-102.8,23.5c-17.7,3.7-19.2,12.6-13,27.6c11.4,27.5,44.9,47.3,73.8,42.3
				C620.2,730,645.2,702.1,646,667.4z"/>
			<path class="st1" d="M645.9,667.4c-0.7,34.8-25.7,62.6-61.9,68.9c-28.8,5.1-62.3-14.8-73.8-42.3c-6.2-15.1-4.7-23.9,13-27.6
				c34.4-7.3,68.5-15.5,102.8-23.5C649.7,637.4,645,654.6,645.9,667.4z M569.3,724.9c36.9,0.2,63.4-23.1,66.4-53
				c1.3-13.5-2.3-19.5-17.2-15.9c-29.5,7.2-59.1,13.7-88.7,20.2c-13.5,3-11.7,11.5-6.9,19.8C534.2,715.7,552.3,724.3,569.3,724.9z"
				/>
			<path class="st0" d="M569.3,724.9c-17-0.5-35.1-9.2-46.4-29c-4.8-8.3-6.5-16.8,6.9-19.8c29.6-6.5,59.3-13,88.7-20.2
				c14.8-3.6,18.5,2.4,17.2,15.9C632.7,701.8,606.2,725.1,569.3,724.9z"/>
		</g>
		<path class="st1" d="M475.7,394.1L475.7,394.1c-9.6,3-19.9-2.3-22.9-11.9l-35.1-111.4c-3.2-10.1,2.9-18.3,13.4-18.3h0
			c9.6-3,19.9,2.3,22.9,11.9l33.7,106.8C490.6,380.8,485.3,391.1,475.7,394.1z"/>
		<path class="st1" d="M605.9,385.8L605.9,385.8c-9.4-3.7-13.9-14.4-10.2-23.8l41.5-104c3.7-9.4,14.4-13.9,23.8-10.2v0
			c9.4,3.7,13.9,14.4,10.2,23.8l-41.5,104C625.9,385,615.2,389.5,605.9,385.8z"/>
		<path class="st1" d="M381.8,463.4L381.8,463.4c-5.5,8.5-16.8,10.9-25.3,5.4l-93.9-61c-8.5-5.5-10.9-16.8-5.4-25.3l0,0
			c5.5-8.5,16.8-10.9,25.3-5.4l93.9,61C384.9,443.6,387.3,454.9,381.8,463.4z"/>
		<circle class="st1" cx="487.1" cy="594.2" r="29.4"/>
		<circle class="st1" cx="615" cy="563" r="29.4"/>
	</g>
</g>
<path class="st1" d="M835.3,1147H364.7c-10.1,0-18.3-8.2-18.3-18.3l0,0c0-10.1,8.2-18.3,18.3-18.3h470.7c10.1,0,18.3,8.2,18.3,18.3
	l0,0C853.6,1138.8,845.4,1147,835.3,1147z"/>
</svg>
