<svg id="Layer_1" data-name="Layer 1" xmlns="http://www.w3.org/2000/svg" viewBox="0 0 1456.49 1456.49"><defs><style>.cls-1{fill:#fed631;}.cls-2{fill:#1a1a1a;}</style></defs><rect class="cls-1" x="149.67" y="149.67" width="1157.15" height="1157.15" rx="133.7"/><path class="cls-2" d="M1006.28,990.63c-72.6,28.17-144.53,24.06-216.34-3-9.64-3.63-12.41-8.06-9.33-18.52,6.45-22,11.28-44.45,16.83-66.69.64-2.57,1.64-5,2.84-8.68,7.14,3.15,13.43,6.17,19.89,8.76,34.85,14,70.38,24.08,108.55,18.19,20.91-3.23,31.61-15.24,30.56-33.92-.63-11.3-5.89-20-16-24.51-21.28-9.47-43-18-64.37-27.2-27.92-11.93-53.35-27.2-71.76-52.37-20.47-28-24.28-58.6-15-91.21C806,643.06,841.2,615.81,887,602.27c56.52-16.68,112.73-10.85,167.38,10.18,3.12,1.2,7.19,7,6.57,9.75-6,26.1-12.9,52-19.49,77.74-17.07-5.52-32.81-12.48-49.25-15.4a231.21,231.21,0,0,0-55.14-3.34c-21.89,1.44-34.91,21-27.57,38.94,2.47,6,7.9,12.56,13.67,15.28,24.64,11.59,50.07,21.51,74.94,32.65,36.64,16.41,66.09,39.52,77.92,80.62C1092.43,905.71,1061.55,969.19,1006.28,990.63Z"/><path class="cls-2" d="M715,493c-33.93-28.87-75.42-39.4-118.51-43.41-69.3-6.44-138.35-1.93-207.29,6.52-11.11,1.36-13.18,5.39-13.16,15.44q.38,258.41.2,516.83c0,4.18.36,8.36.57,12.82H500v-195c5.74,0,10,.08,14.25,0,26.1-.65,52.36.31,78.25-2.39,41-4.27,79.73-16.91,113.18-42,40.07-30.1,60.15-71.41,64.82-120.64C776.05,582.89,760.73,531.9,715,493ZM646.14,640.84c-6.76,32-26.19,52.57-56.56,62.83-24.77,8.36-50.41,8.75-76.29,6.42-10.36-.93-14.06-4.73-13.68-15.45.82-22.92.25-45.89.25-68.85,0-23.36.2-46.7-.1-70-.1-7.09,1.47-11.46,9.52-11.41,24.4.12,49.21-2.76,73.11.71C630.72,552.05,656.27,592.73,646.14,640.84Z"/></svg>