<svg id="Layer_1" data-name="Layer 1" xmlns="http://www.w3.org/2000/svg" viewBox="0 0 1456.49 1456.49"><defs><style>.cls-1{fill:#fed631;}.cls-2{fill:#1a1a1a;}</style></defs><rect class="cls-1" x="149.67" y="149.67" width="1157.15" height="1157.15" rx="133.7"/><path class="cls-2" d="M1091.38,684.64c0,6.23-1.51,7.61-8,7.86-7.2.28-14.41.14-21.61.54a226.18,226.18,0,0,0-79,18.77,83.75,83.75,0,0,0-24.36,16.25,10.64,10.64,0,0,0-3.53,8.45c.15,15.82.06,31.64.06,47.45V995.39c0,11.29-.24,11.51-11.41,11.51h-95.5a48,48,0,0,1-4.8-.07c-3.82-.4-5.82-2.2-6.34-6a53.83,53.83,0,0,1-.23-7.19c0-89.5.15-179-.09-268.49-.11-36-1-72.07-1.75-108.1-.16-7.8-1-15.58-1.61-23.36-.53-6.43.77-7.92,7-7.91q42,.06,84.09.05c12.48,0,16.11,2.5,18.38,14.84,2.17,11.78,3.28,23.75,4.84,35.64.18,1.37.19,2.77.29,4.16l1.18.75,4.36-4.59c23.46-24.72,51-43,83.76-53a159.53,159.53,0,0,1,45-6.74c7.07-.09,9.22,1.81,9.24,8.64Q1091.49,635.07,1091.38,684.64Z"/><path class="cls-2" d="M757.34,594.38c-7.52-35.88-24.48-66.67-52-91.28s-60.41-38.69-96.18-46.4c-26.54-5.72-53.5-7.34-80.57-7.11-22,.18-44,.65-66,1.09-20.81.42-41.63.95-62.44,1.45-9.6.23-19.21.47-28.81.79-4.93.16-5.93,1.21-6.2,6.05,0,1,0,2,0,3V995.89c0,1.6,0,3.21.12,4.79.27,3,1.84,4.82,4.94,5,1.8.12,3.6.16,5.4.16h52.25c14.22,0,28.43,0,42.65,0,6.27,0,8.13-2.05,8.31-8.32,0-1.4,0-2.81,0-4.21v-163c8.35,0,15.56-.3,22.73,0,32.88,1.59,65.62.46,98.13-5.06,22-3.72,43.4-9.55,63.43-19.54,39.64-19.76,69.62-49.07,85.68-90.85C763.75,675.75,765.91,635.26,757.34,594.38Zm-112.1,72.18c-3.15,13.63-9.5,25.36-19.81,34.94a93.73,93.73,0,0,1-35.85,21.17c-18.23,5.8-36.85,9.42-56,9.64-17,.2-34-.37-51-.62a23.89,23.89,0,0,1-3.12-.57V554.51a63.91,63.91,0,0,1,6.5-.72c19.82-.19,39.63-.45,59.44-.39A140.67,140.67,0,0,1,599.27,564c29,12,44.53,34.27,48.09,65A110,110,0,0,1,645.24,666.56Z"/></svg>